<svg width="1495" height="416" viewBox="0 0 1495 416" fill="none" xmlns="http://www.w3.org/2000/svg">
<path d="M391.185 82C420.648 81.9803 449.299 91.7015 472.723 109.665C496.147 127.629 513.042 152.839 520.804 181.407C528.567 209.976 526.766 240.317 515.679 267.755C508.862 284.625 498.768 299.821 486.104 312.52C472.92 325.739 451.774 320.146 442.33 304.041C432.947 288.038 439.365 267.587 448.864 251.653C450.629 248.694 452.173 245.588 453.477 242.36C459.02 228.641 459.921 213.471 456.039 199.187C452.158 184.902 443.71 172.297 431.998 163.315C420.287 154.333 405.961 149.473 391.23 149.483C376.498 149.493 362.179 154.373 350.479 163.37C338.779 172.368 330.348 184.985 326.486 199.274C322.624 213.563 323.545 228.733 329.107 242.445C330.415 245.67 331.964 248.773 333.732 251.73C343.252 267.652 349.697 288.095 340.336 304.11C330.914 320.228 309.775 325.848 296.574 312.647C283.893 299.966 273.777 284.783 266.938 267.923C255.814 240.5 253.972 210.16 261.697 181.581C269.421 153.002 286.284 127.771 309.683 109.776C333.083 91.7803 361.722 82.0199 391.185 82ZM391.275 192.265C404.971 192.265 416.075 203.368 416.075 217.065C416.075 230.761 404.971 241.864 391.275 241.864C377.578 241.864 366.476 230.761 366.475 217.065C366.475 203.369 377.578 192.265 391.275 192.265Z" fill="url(#paint0_linear_2075_2)"/>
<path d="M897.981 288.131V120.047C897.981 102.698 912.046 88.6338 929.395 88.6338C943.707 88.6339 955.815 98.2159 959.588 111.36C963.526 107.427 967.888 103.925 972.668 100.858C980.005 95.8789 987.806 92.0476 996.06 89.3809C1004.44 86.3938 1013.01 84.8887 1021.74 84.8887C1034.3 84.8887 1045.64 86.9288 1055.66 91.167C1066.03 95.1625 1074.64 101.619 1081.37 110.463C1084.04 113.829 1086.42 117.519 1088.53 121.517C1090.49 119.029 1092.65 116.662 1095.01 114.419C1100.87 108.572 1107.45 103.461 1114.73 99.0889C1122.09 94.3939 1129.78 90.8422 1137.8 88.4648L1137.83 88.457L1137.86 88.4482C1146.12 86.0878 1154.3 84.8887 1162.39 84.8887C1179.82 84.8887 1194.83 88.3743 1207.09 95.7305C1219.45 103.144 1228.56 114.36 1234.53 128.985C1240.46 143.507 1243.29 161.115 1243.29 181.604V288.131C1243.29 305.693 1229.06 319.93 1211.5 319.931C1193.93 319.931 1179.7 305.693 1179.7 288.131V184.933C1179.7 174.329 1178.23 166.039 1175.59 159.806L1175.55 159.715L1175.52 159.622C1173.19 153.579 1169.64 149.493 1164.93 146.923L1164.79 146.844L1164.64 146.757C1160.01 143.888 1153.83 142.246 1145.75 142.246C1139.55 142.246 1133.64 143.357 1127.96 145.578L1127.89 145.605L1127.83 145.63C1122.52 147.56 1118 150.424 1114.2 154.221L1114.14 154.289L1114.07 154.355C1110.2 157.975 1107.2 162.179 1105.03 167.005C1102.91 171.708 1101.81 176.962 1101.81 182.852V288.131C1101.81 305.693 1087.58 319.93 1070.01 319.931C1052.45 319.931 1038.21 305.693 1038.21 288.131V184.517C1038.21 174.503 1036.76 166.654 1034.15 160.717L1034.13 160.678L1034.11 160.639C1031.47 154.4 1027.79 150.035 1023.16 147.173L1023.08 147.12L1022.99 147.064C1018.33 143.953 1012.46 142.246 1005.1 142.246C998.902 142.246 993.158 143.357 987.813 145.544L987.703 145.589L987.592 145.63C982.199 147.591 977.639 150.37 973.832 153.939C969.972 157.559 966.968 161.762 964.797 166.588C962.68 171.292 961.58 176.546 961.58 182.436V288.131C961.58 305.693 947.343 319.931 929.781 319.931C912.219 319.931 897.982 305.693 897.981 288.131Z" fill="black"/>
<path d="M769.184 266.318C755.275 266.318 743.35 263.702 733.243 258.665C723.456 253.376 715.85 246.013 710.328 236.499C707.84 231.987 705.92 227.069 704.588 221.726H841.168C854.379 221.726 865.173 211.179 865.48 197.972V197.956L865.481 197.939C865.762 182.228 863.461 167.602 858.5 154.126L858.012 152.826C853.04 138.848 845.705 126.784 835.968 116.733C826.254 106.431 814.774 98.3441 801.581 92.4805C788.288 86.5723 773.997 83.6406 758.78 83.6406C741.708 83.6407 725.81 86.6791 711.156 92.8242C696.782 98.6912 684.275 107.223 673.694 118.391C663.417 129.256 655.388 142.132 649.58 156.942C643.724 171.874 640.844 188.304 640.844 206.155C640.844 228.724 645.918 249.054 656.204 266.981L656.263 267.083C666.808 284.658 681.322 298.568 699.69 308.772L699.726 308.792C718.478 319.047 739.883 324.092 763.774 324.092C774.585 324.092 785.501 322.63 796.51 319.733C807.437 316.858 817.813 312.968 827.627 308.062L827.658 308.047L827.688 308.031C831.487 306.078 835.132 303.977 838.621 301.729C851.418 293.486 852.34 276.735 844.275 265.498C834.483 251.853 816.111 250.86 802.898 258.15C800.267 259.603 797.739 260.791 795.314 261.729C787.479 264.762 778.791 266.318 769.184 266.318ZM727.228 148.109C735.553 143.472 745.982 140.998 758.78 140.998C766.75 140.998 773.805 142.732 780.071 146.106L780.19 146.171L780.312 146.229C786.905 149.403 792.212 153.877 796.329 159.688L796.364 159.737L796.4 159.786C799.598 164.113 801.786 169.078 802.917 174.771H706.255C707.011 172.514 707.87 170.395 708.833 168.412L708.862 168.354C713.079 159.423 719.188 152.741 727.228 148.109Z" fill="black"/>
<path d="M1398.34 266.318C1384.43 266.318 1372.51 263.702 1362.4 258.665C1352.61 253.376 1345.01 246.013 1339.48 236.499C1337 231.987 1335.08 227.069 1333.74 221.726H1470.32C1483.54 221.726 1494.33 211.179 1494.64 197.972V197.956L1494.64 197.939C1494.92 182.228 1492.62 167.602 1487.66 154.126L1487.17 152.826C1482.2 138.848 1474.86 126.784 1465.12 116.733C1455.41 106.431 1443.93 98.3441 1430.74 92.4805C1417.44 86.5723 1403.15 83.6406 1387.94 83.6406C1370.86 83.6407 1354.97 86.6791 1340.31 92.8242C1325.94 98.6912 1313.43 107.223 1302.85 118.391C1292.57 129.256 1284.54 142.132 1278.74 156.942C1272.88 171.874 1270 188.304 1270 206.155C1270 228.724 1275.07 249.054 1285.36 266.981L1285.42 267.083C1295.96 284.658 1310.48 298.568 1328.85 308.772L1328.88 308.792C1347.63 319.047 1369.04 324.092 1392.93 324.092C1403.74 324.092 1414.66 322.63 1425.67 319.733C1436.59 316.858 1446.97 312.968 1456.78 308.062L1456.81 308.047L1456.84 308.031C1460.64 306.078 1464.29 303.977 1467.78 301.729C1480.57 293.486 1481.5 276.735 1473.43 265.498C1463.64 251.853 1445.27 250.86 1432.05 258.15C1429.42 259.603 1426.9 260.791 1424.47 261.729C1416.64 264.762 1407.95 266.318 1398.34 266.318ZM1356.38 148.109C1364.71 143.472 1375.14 140.998 1387.94 140.998C1395.91 140.998 1402.96 142.732 1409.23 146.106L1409.35 146.171L1409.47 146.229C1416.06 149.403 1421.37 153.877 1425.49 159.688L1425.52 159.737L1425.56 159.786C1428.75 164.113 1430.94 169.078 1432.07 174.771H1335.41C1336.17 172.514 1337.03 170.395 1337.99 168.412L1338.02 168.354C1342.24 159.423 1348.34 152.741 1356.38 148.109Z" fill="black"/>
<path fill-rule="evenodd" clip-rule="evenodd" d="M136.869 87.1484C128.607 85.083 120.073 84.0567 111.279 84.0566C90.2612 84.0566 71.1299 89.3244 54.043 99.9238C37.2849 110.214 24.0838 124.47 14.4551 142.546C4.76352 160.461 0 180.886 0 203.658C2.97885e-05 226.43 4.76364 246.855 14.4551 264.77L14.4824 264.822L14.5117 264.873C24.4278 282.372 37.7552 296.302 54.46 306.56L54.4795 306.572L54.499 306.584C71.6226 316.917 91.1651 322.011 112.943 322.011C125.686 322.011 138.117 319.488 150.195 314.479L150.253 314.456L150.31 314.431C160.361 310.018 169.095 304.52 176.436 297.899V302.695C176.436 315.881 174.059 326.33 169.679 334.36L169.66 334.393L169.643 334.426C165.294 342.64 158.829 348.65 150.038 352.557L149.945 352.598L149.854 352.643C141.201 356.845 129.963 359.113 115.856 359.113C108.236 359.113 100.455 358.326 92.5078 356.738C84.8334 355.15 77.5859 352.906 70.7559 350.017C57.7814 344.528 40.5245 348.181 33.71 362.274L32.4951 364.786C27.1011 375.942 29.6854 390.597 41.7744 397.132C49.4809 401.298 58.1975 404.871 67.8887 407.879L67.916 407.887C84.825 413.045 101.782 415.639 118.77 415.639C137.328 415.639 154.095 413.071 168.987 407.822C183.909 402.841 196.757 395.182 207.424 384.811C218.067 374.74 226.161 362.485 231.723 348.141C237.313 333.723 240.035 317.29 240.035 298.95V120.016C240.035 102.684 225.985 88.6339 208.653 88.6338H204.838C192.232 88.6339 181.584 97.122 178.346 108.729C172.766 104.037 166.499 99.8172 159.567 96.0566C152.681 92.1673 145.104 89.2072 136.869 87.1484ZM120.85 140.998C109.389 140.998 99.5904 143.784 91.2354 149.19L91.1826 149.225L91.1289 149.257C82.6773 154.477 75.9028 161.832 70.8154 171.498C66.0606 180.78 63.5996 191.588 63.5996 204.074C63.5996 216.241 66.0444 227.065 70.8242 236.664C75.8961 246.02 82.6597 253.244 91.1289 258.475C99.4979 263.644 109.336 266.318 120.85 266.318C132.364 266.318 142.201 263.644 150.57 258.475L150.604 258.454L150.637 258.435C159.367 253.196 166.087 245.993 170.856 236.704C175.629 227.41 178.101 216.584 178.101 204.074C178.101 191.312 175.502 180.394 170.5 171.141L170.454 171.057L170.411 170.971C165.606 161.361 158.993 154.043 150.57 148.841C142.201 143.672 132.364 140.998 120.85 140.998Z" fill="black"/>
<path d="M579.114 319.931C596.677 319.931 610.914 305.693 610.914 288.131V31.7998C610.914 14.2375 596.677 0.000127828 579.114 0C561.552 0 547.314 14.2374 547.314 31.7998V288.131C547.314 305.693 561.552 319.931 579.114 319.931Z" fill="black"/>
<defs>
<linearGradient id="paint0_linear_2075_2" x1="257" y1="201" x2="525.549" y2="201" gradientUnits="userSpaceOnUse">
<stop stop-color="#FFCA0B"/>
<stop offset="1" stop-color="#E35115"/>
</linearGradient>
</defs>
</svg>
